<svg width="40" height="41" viewBox="0 0 40 41" fill="none" xmlns="http://www.w3.org/2000/svg">
<circle cx="20" cy="20.7952" r="20" fill="#D9D9D9"/>
<path fill-rule="evenodd" clip-rule="evenodd" d="M21.0171 12.9985C21.0171 12.2496 20.4101 11.6426 19.6612 11.6426C18.9124 11.6426 18.3053 12.2496 18.3053 12.9985V19.1002H12.2036C11.4547 19.1002 10.8477 19.7073 10.8477 20.4561C10.8477 21.205 11.4547 21.8121 12.2036 21.8121H18.3053V28.5917C18.3053 29.3406 18.9124 29.9477 19.6612 29.9477C20.4101 29.9477 21.0171 29.3406 21.0171 28.5917V21.8121H27.7968C28.5457 21.8121 29.1527 21.205 29.1527 20.4561C29.1527 19.7073 28.5457 19.1002 27.7968 19.1002H21.0171V12.9985Z" fill="black"/>
</svg>
