<svg width="21" height="17" viewBox="0 0 21 17" fill="none" xmlns="http://www.w3.org/2000/svg">
<path d="M-0.000199107 8.49829C-0.000199135 8.17642 0.127664 7.86773 0.355258 7.64014C0.582854 7.41254 0.891538 7.28468 1.21341 7.28468L16.0801 7.28468L10.8697 2.07527C10.6417 1.84728 10.5136 1.53806 10.5136 1.21564C10.5136 0.893208 10.6417 0.583987 10.8697 0.355998C11.0977 0.128007 11.4069 -7.74302e-05 11.7293 -7.74584e-05C12.0517 -7.74865e-05 12.361 0.128007 12.5889 0.355998L19.8706 7.63764C19.9837 7.75039 20.0735 7.88436 20.1348 8.03188C20.196 8.17939 20.2275 8.33755 20.2275 8.49728C20.2275 8.657 20.196 8.81516 20.1348 8.96268C20.0735 9.11019 19.9837 9.24417 19.8706 9.35691L12.589 16.6386C12.4761 16.7514 12.342 16.841 12.1945 16.9021C12.047 16.9632 11.889 16.9946 11.7293 16.9946C11.5697 16.9946 11.4116 16.9632 11.2641 16.9021C11.1166 16.841 10.9826 16.7514 10.8697 16.6386C10.7568 16.5257 10.6672 16.3916 10.6061 16.2442C10.545 16.0967 10.5136 15.9386 10.5136 15.7789C10.5136 15.6193 10.545 15.4612 10.6061 15.3137C10.6672 15.1662 10.7568 15.0322 10.8697 14.9193L16.0801 9.71189L1.21341 9.7119C0.891538 9.7119 0.582855 9.58403 0.355258 9.35644C0.127664 9.12884 -0.000199079 8.82016 -0.000199107 8.49829Z" fill="#0192FE"/>
</svg>
