<svg width="18" height="19" viewBox="0 0 18 19" fill="none" xmlns="http://www.w3.org/2000/svg">
<path d="M16 0.844116C16.5304 0.844116 17.0391 1.05483 17.4142 1.4299C17.7893 1.80498 18 2.31368 18 2.84412V16.8441C18 17.3745 17.7893 17.8833 17.4142 18.2583C17.0391 18.6334 16.5304 18.8441 16 18.8441H2C1.46957 18.8441 0.960859 18.6334 0.585786 18.2583C0.210714 17.8833 0 17.3745 0 16.8441V2.84412C0 2.31368 0.210714 1.80498 0.585786 1.4299C0.960859 1.05483 1.46957 0.844116 2 0.844116H16ZM15.5 16.3441V11.0441C15.5 10.1795 15.1565 9.35032 14.5452 8.73895C13.9338 8.12758 13.1046 7.78412 12.24 7.78412C11.39 7.78412 10.4 8.30412 9.92 9.08412V7.97412H7.13V16.3441H9.92V11.4141C9.92 10.6441 10.54 10.0141 11.31 10.0141C11.6813 10.0141 12.0374 10.1616 12.2999 10.4242C12.5625 10.6867 12.71 11.0428 12.71 11.4141V16.3441H15.5ZM3.88 6.40412C4.32556 6.40412 4.75288 6.22712 5.06794 5.91206C5.383 5.59699 5.56 5.16968 5.56 4.72412C5.56 3.79412 4.81 3.03412 3.88 3.03412C3.43178 3.03412 3.00193 3.21217 2.68499 3.52911C2.36805 3.84604 2.19 4.2759 2.19 4.72412C2.19 5.65412 2.95 6.40412 3.88 6.40412ZM5.27 16.3441V7.97412H2.5V16.3441H5.27Z" fill="#0192FE"/>
</svg>
