<svg width="20" height="21" viewBox="0 0 20 21" fill="none" xmlns="http://www.w3.org/2000/svg">
<path d="M11.0286 0.84498C11.7583 0.84218 12.488 0.849514 13.2176 0.86698L13.4116 0.87398C13.6356 0.88198 13.8566 0.89198 14.1236 0.90398C15.1876 0.95398 15.9136 1.12198 16.5506 1.36898C17.2106 1.62298 17.7666 1.96698 18.3226 2.52298C18.831 3.02259 19.2244 3.62693 19.4756 4.29398C19.7226 4.93098 19.8906 5.65798 19.9406 6.72198C19.9526 6.98798 19.9626 7.20998 19.9706 7.43398L19.9766 7.62798C19.9943 8.35717 20.002 9.08658 19.9996 9.81598L20.0006 10.562V11.872C20.003 12.6017 19.9954 13.3315 19.9776 14.061L19.9716 14.255C19.9636 14.479 19.9536 14.7 19.9416 14.967C19.8916 16.031 19.7216 16.757 19.4756 17.394C19.2252 18.0617 18.8317 18.6666 18.3226 19.166C17.8225 19.6743 17.2179 20.0677 16.5506 20.319C15.9136 20.566 15.1876 20.734 14.1236 20.784C13.8566 20.796 13.6356 20.806 13.4116 20.814L13.2176 20.82C12.4881 20.8378 11.7583 20.8454 11.0286 20.843L10.2826 20.844H8.97358C8.24384 20.8464 7.5141 20.8388 6.78458 20.821L6.59058 20.815C6.35319 20.8064 6.11585 20.7964 5.87858 20.785C4.81458 20.735 4.08858 20.565 3.45058 20.319C2.78326 20.0683 2.17881 19.6748 1.67958 19.166C1.17062 18.6663 0.776801 18.0615 0.525577 17.394C0.278577 16.757 0.110577 16.031 0.0605769 14.967C0.0494399 14.7297 0.0394398 14.4924 0.030577 14.255L0.0255771 14.061C0.00714068 13.3315 -0.00119355 12.6017 0.000577001 11.872V9.81598C-0.00221397 9.08658 0.00512015 8.35718 0.0225771 7.62798L0.029577 7.43398C0.037577 7.20998 0.047577 6.98798 0.059577 6.72198C0.109577 5.65698 0.277577 4.93198 0.524577 4.29398C0.77595 3.6266 1.17054 3.02243 1.68058 2.52398C2.17947 2.01473 2.78354 1.62055 3.45058 1.36898C4.08858 1.12198 4.81358 0.95398 5.87858 0.90398L6.59058 0.87398L6.78458 0.868981C7.51376 0.850553 8.24316 0.842219 8.97258 0.84398L11.0286 0.84498ZM10.0006 5.84498C9.33808 5.83561 8.68033 5.958 8.06555 6.20505C7.45077 6.45209 6.89122 6.81886 6.41942 7.28404C5.94762 7.74921 5.57298 8.30352 5.31726 8.91474C5.06155 9.52597 4.92987 10.1819 4.92987 10.8445C4.92987 11.507 5.06155 12.163 5.31726 12.7742C5.57298 13.3854 5.94762 13.9398 6.41942 14.4049C6.89122 14.8701 7.45077 15.2369 8.06555 15.4839C8.68033 15.731 9.33808 15.8534 10.0006 15.844C11.3267 15.844 12.5984 15.3172 13.5361 14.3795C14.4738 13.4418 15.0006 12.1701 15.0006 10.844C15.0006 9.5179 14.4738 8.24613 13.5361 7.30845C12.5984 6.37076 11.3267 5.84498 10.0006 5.84498ZM10.0006 7.84498C10.3991 7.83764 10.7951 7.90978 11.1654 8.05719C11.5357 8.2046 11.8729 8.42432 12.1574 8.70353C12.4418 8.98273 12.6678 9.31581 12.822 9.68332C12.9763 10.0508 13.0558 10.4454 13.0558 10.844C13.0559 11.2425 12.9766 11.6371 12.8224 12.0047C12.6683 12.3723 12.4424 12.7054 12.1581 12.9847C11.8737 13.264 11.5366 13.4839 11.1663 13.6314C10.796 13.7789 10.4001 13.8512 10.0016 13.844C9.20593 13.844 8.44287 13.5279 7.88026 12.9653C7.31765 12.4027 7.00158 11.6396 7.00158 10.844C7.00158 10.0483 7.31765 9.28527 7.88026 8.72266C8.44287 8.16005 9.20593 7.84398 10.0016 7.84398L10.0006 7.84498ZM15.2506 4.34498C14.928 4.35789 14.6229 4.49513 14.3992 4.72795C14.1755 4.96077 14.0506 5.27111 14.0506 5.59398C14.0506 5.91685 14.1755 6.22719 14.3992 6.46001C14.6229 6.69283 14.928 6.83007 15.2506 6.84298C15.5821 6.84298 15.9 6.71128 16.1345 6.47686C16.3689 6.24244 16.5006 5.9245 16.5006 5.59298C16.5006 5.26146 16.3689 4.94352 16.1345 4.7091C15.9 4.47468 15.5821 4.34298 15.2506 4.34298V4.34498Z" fill="#0192FE"/>
</svg>
