<svg width="56" height="57" viewBox="0 0 56 57" fill="none" xmlns="http://www.w3.org/2000/svg">
<path d="M28 0.368896C22.4621 0.368896 17.0486 2.01107 12.444 5.08775C7.83947 8.16442 4.25064 12.5374 2.13138 17.6538C0.0121317 22.7701 -0.542361 28.4 0.538025 33.8314C1.61841 39.2629 4.28515 44.252 8.20102 48.1679C12.1169 52.0837 17.106 54.7505 22.5375 55.8309C27.9689 56.9113 33.5988 56.3568 38.7151 54.2375C43.8315 52.1183 48.2045 48.5294 51.2812 43.9249C54.3578 39.3203 56 33.9068 56 28.3689C55.9918 20.9453 53.0392 13.8282 47.79 8.57891C42.5407 3.32966 35.4236 0.377049 28 0.368896ZM28 54.1289C22.9052 54.1289 17.9247 52.6181 13.6885 49.7875C9.45231 46.957 6.15059 42.9338 4.20087 38.2268C2.25116 33.5198 1.74103 28.3403 2.73498 23.3434C3.72894 18.3464 6.18234 13.7564 9.78494 10.1538C13.3875 6.55122 17.9775 4.09782 22.9745 3.10387C27.9714 2.10991 33.1509 2.62005 37.8579 4.56976C42.565 6.51947 46.5881 9.82119 49.4187 14.0574C52.2492 18.2936 53.76 23.274 53.76 28.3689C53.7526 35.1986 51.0362 41.7464 46.2069 46.5758C41.3776 51.4051 34.8297 54.1215 28 54.1289ZM40.32 28.3689C40.32 28.6659 40.202 28.9508 39.992 29.1609C39.7819 29.3709 39.497 29.4889 39.2 29.4889H19.5048L26.5524 36.5365C26.7626 36.7466 26.8806 37.0317 26.8806 37.3289C26.8806 37.6261 26.7626 37.9111 26.5524 38.1213C26.3423 38.3314 26.0572 38.4495 25.76 38.4495C25.4628 38.4495 25.1778 38.3314 24.9676 38.1213L16.0076 29.1613C15.9035 29.0573 15.8209 28.9338 15.7645 28.7978C15.7081 28.6618 15.6791 28.5161 15.6791 28.3689C15.6791 28.2217 15.7081 28.076 15.7645 27.94C15.8209 27.804 15.9035 27.6805 16.0076 27.5765L24.9676 18.6165C25.1778 18.4063 25.4628 18.2883 25.76 18.2883C26.0572 18.2883 26.3423 18.4063 26.5524 18.6165C26.7626 18.8266 26.8806 19.1117 26.8806 19.4089C26.8806 19.7061 26.7626 19.9911 26.5524 20.2013L19.5048 27.2489H39.2C39.497 27.2489 39.7819 27.3669 39.992 27.5769C40.202 27.787 40.32 28.0718 40.32 28.3689Z" fill="#0192FE"/>
</svg>
