<svg width="56" height="57" viewBox="0 0 56 57" fill="none" xmlns="http://www.w3.org/2000/svg">
<circle cx="28.5" cy="28.2378" r="27.5" fill="#0291FB"/>
<path d="M28 0.368896C33.5379 0.368896 38.9514 2.01107 43.556 5.08775C48.1605 8.16442 51.7494 12.5374 53.8686 17.6538C55.9879 22.7701 56.5424 28.4 55.462 33.8314C54.3816 39.2629 51.7148 44.252 47.799 48.1679C43.8831 52.0837 38.894 54.7505 33.4625 55.8309C28.0311 56.9113 22.4012 56.3568 17.2849 54.2375C12.1685 52.1183 7.79553 48.5294 4.71885 43.9249C1.64217 39.3203 0 33.9068 0 28.3689C0.00815201 20.9453 2.96076 13.8282 8.21001 8.57891C13.4593 3.32966 20.5764 0.377049 28 0.368896ZM28 54.1289C33.0948 54.1289 38.0753 52.6181 42.3115 49.7875C46.5477 46.957 49.8494 42.9338 51.7991 38.2268C53.7488 33.5198 54.259 28.3403 53.265 23.3434C52.2711 18.3464 49.8177 13.7564 46.2151 10.1538C42.6125 6.55122 38.0225 4.09782 33.0255 3.10387C28.0286 2.10991 22.8491 2.62005 18.1421 4.56976C13.435 6.51947 9.41188 9.82119 6.58134 14.0574C3.7508 18.2936 2.24 23.274 2.24 28.3689C2.24741 35.1986 4.96378 41.7464 9.79311 46.5758C14.6224 51.4051 21.1703 54.1215 28 54.1289ZM15.68 28.3689C15.68 28.6659 15.798 28.9508 16.008 29.1609C16.2181 29.3709 16.503 29.4889 16.8 29.4889H36.4952L29.4476 36.5365C29.2374 36.7466 29.1194 37.0317 29.1194 37.3289C29.1194 37.6261 29.2374 37.9111 29.4476 38.1213C29.6577 38.3314 29.9428 38.4495 30.24 38.4495C30.5372 38.4495 30.8222 38.3314 31.0324 38.1213L39.9924 29.1613C40.0965 29.0573 40.1791 28.9338 40.2355 28.7978C40.2919 28.6618 40.3209 28.5161 40.3209 28.3689C40.3209 28.2217 40.2919 28.076 40.2355 27.94C40.1791 27.804 40.0965 27.6805 39.9924 27.5765L31.0324 18.6165C30.8222 18.4063 30.5372 18.2883 30.24 18.2883C29.9428 18.2883 29.6577 18.4063 29.4476 18.6165C29.2374 18.8266 29.1194 19.1117 29.1194 19.4089C29.1194 19.7061 29.2374 19.9911 29.4476 20.2013L36.4952 27.2489H16.8C16.503 27.2489 16.2181 27.3669 16.008 27.5769C15.798 27.787 15.68 28.0718 15.68 28.3689Z" fill="white"/>
</svg>
