<svg width="165" height="26" viewBox="0 0 165 26" fill="none" xmlns="http://www.w3.org/2000/svg">
<path d="M25.5112 9.30321L17.7169 8.16263L14.2327 1.05021C14.1375 0.855478 13.9809 0.697836 13.7875 0.602015C13.3025 0.360916 12.7131 0.561832 12.4706 1.05021L8.98633 8.16263L1.19203 9.30321C0.977146 9.33412 0.780677 9.43612 0.630255 9.59068C0.448404 9.77888 0.348195 10.0321 0.351649 10.2946C0.355103 10.5572 0.461936 10.8076 0.648674 10.9909L6.28795 16.5269L4.95564 24.3441C4.9244 24.5259 4.94439 24.7129 5.01333 24.8839C5.08228 25.0549 5.19743 25.203 5.34572 25.3115C5.49402 25.4199 5.66952 25.4844 5.85234 25.4975C6.03516 25.5106 6.21797 25.4719 6.38004 25.3857L13.3516 21.6951L20.3232 25.3857C20.5135 25.4877 20.7346 25.5217 20.9464 25.4847C21.4805 25.3919 21.8397 24.8819 21.7476 24.3441L20.4153 16.5269L26.0546 10.9909C26.2081 10.8394 26.3094 10.6416 26.3401 10.4252C26.423 9.88432 26.0484 9.38358 25.5112 9.30321Z" fill="#FEA250"/>
<path d="M71.5112 9.30321L63.7169 8.16263L60.2327 1.05021C60.1375 0.855478 59.9809 0.697836 59.7875 0.602015C59.3025 0.360916 58.7131 0.561832 58.4706 1.05021L54.9863 8.16263L47.192 9.30321C46.9771 9.33412 46.7807 9.43612 46.6303 9.59068C46.4484 9.77888 46.3482 10.0321 46.3516 10.2946C46.3551 10.5572 46.4619 10.8076 46.6487 10.9909L52.2879 16.5269L50.9556 24.3441C50.9244 24.5259 50.9444 24.7129 51.0133 24.8839C51.0823 25.0549 51.1974 25.203 51.3457 25.3115C51.494 25.4199 51.6695 25.4844 51.8523 25.4975C52.0352 25.5106 52.218 25.4719 52.38 25.3857L59.3516 21.6951L66.3232 25.3857C66.5135 25.4877 66.7346 25.5217 66.9464 25.4847C67.4805 25.3919 67.8397 24.8819 67.7476 24.3441L66.4153 16.5269L72.0546 10.9909C72.2081 10.8394 72.3094 10.6416 72.3401 10.4252C72.423 9.88432 72.0484 9.38358 71.5112 9.30321Z" fill="#FEA250"/>
<path d="M117.511 9.30321L109.717 8.16263L106.233 1.05021C106.138 0.855478 105.981 0.697836 105.788 0.602015C105.303 0.360916 104.713 0.561832 104.471 1.05021L100.986 8.16263L93.192 9.30321C92.9771 9.33412 92.7807 9.43612 92.6303 9.59068C92.4484 9.77888 92.3482 10.0321 92.3516 10.2946C92.3551 10.5572 92.4619 10.8076 92.6487 10.9909L98.2879 16.5269L96.9556 24.3441C96.9244 24.5259 96.9444 24.7129 97.0133 24.8839C97.0823 25.0549 97.1974 25.203 97.3457 25.3115C97.494 25.4199 97.6695 25.4844 97.8523 25.4975C98.0352 25.5106 98.218 25.4719 98.38 25.3857L105.352 21.6951L112.323 25.3857C112.514 25.4877 112.735 25.5217 112.946 25.4847C113.481 25.3919 113.84 24.8819 113.748 24.3441L112.415 16.5269L118.055 10.9909C118.208 10.8394 118.309 10.6416 118.34 10.4252C118.423 9.88432 118.048 9.38358 117.511 9.30321Z" fill="#FEA250"/>
<path d="M163.511 9.30321L155.717 8.16263L152.233 1.05021C152.138 0.855478 151.981 0.697836 151.788 0.602015C151.303 0.360916 150.713 0.561832 150.471 1.05021L146.986 8.16263L139.192 9.30321C138.977 9.33412 138.781 9.43612 138.63 9.59068C138.448 9.77888 138.348 10.0321 138.352 10.2946C138.355 10.5572 138.462 10.8076 138.649 10.9909L144.288 16.5269L142.956 24.3441C142.924 24.5259 142.944 24.7129 143.013 24.8839C143.082 25.0549 143.197 25.203 143.346 25.3115C143.494 25.4199 143.67 25.4844 143.852 25.4975C144.035 25.5106 144.218 25.4719 144.38 25.3857L151.352 21.6951L158.323 25.3857C158.514 25.4877 158.735 25.5217 158.946 25.4847C159.481 25.3919 159.84 24.8819 159.748 24.3441L158.415 16.5269L164.055 10.9909C164.208 10.8394 164.309 10.6416 164.34 10.4252C164.423 9.88432 164.048 9.38358 163.511 9.30321Z" fill="#FEA250"/>
</svg>
